<mxfile host="app.diagrams.net" agent="Mozilla/5.0 (X11; Linux x86_64) AppleWebKit/537.36 (KHTML, like Gecko) Chrome/131.0.0.0 Safari/537.36" version="25.0.3">
  <diagram name="Page-1" id="PuFN-wMOv0jWiG4jprAx">
    <mxGraphModel dx="1420" dy="824" grid="1" gridSize="10" guides="1" tooltips="1" connect="1" arrows="1" fold="1" page="1" pageScale="1" pageWidth="1420" pageHeight="690" background="none" math="0" shadow="0">
      <root>
        <mxCell id="0" />
        <mxCell id="DKlUDa0g7rmCu-vv5rfz-316" value="Spellbook borders" style="locked=1;" parent="0" />
        <mxCell id="DKlUDa0g7rmCu-vv5rfz-317" value="" style="rounded=1;fontFamily=Helvetica;fontSize=11;fontColor=default;labelBackgroundColor=none;fillColor=#FCF4C4;strokeColor=#667788;opacity=30;glass=0;shadow=0;align=center;verticalAlign=middle;gradientColor=none;strokeWidth=2;" parent="DKlUDa0g7rmCu-vv5rfz-316" vertex="1">
          <mxGeometry x="10" y="40" width="1180" height="140" as="geometry" />
        </mxCell>
        <mxCell id="DKlUDa0g7rmCu-vv5rfz-318" value="" style="rounded=1;fontFamily=Helvetica;fontSize=11;fontColor=default;labelBackgroundColor=none;fillColor=#667788;strokeColor=#667788;opacity=30;glass=0;shadow=0;align=center;verticalAlign=middle;gradientColor=none;strokeWidth=2;" parent="DKlUDa0g7rmCu-vv5rfz-316" vertex="1">
          <mxGeometry x="10" y="200" width="1180" height="260" as="geometry" />
        </mxCell>
        <mxCell id="DKlUDa0g7rmCu-vv5rfz-319" value="" style="rounded=1;fontFamily=Helvetica;fontSize=11;fontColor=default;labelBackgroundColor=none;fillColor=#FCF4C4;strokeColor=#667788;opacity=30;glass=0;shadow=0;align=center;verticalAlign=middle;gradientColor=none;strokeWidth=2;" parent="DKlUDa0g7rmCu-vv5rfz-316" vertex="1">
          <mxGeometry x="10" y="480" width="1180" height="200" as="geometry" />
        </mxCell>
        <mxCell id="4LNg5v-IOajOxHjOTWhF-1" value="Inspiration" style="text;align=center;verticalAlign=middle;whiteSpace=wrap;rounded=0;fontStyle=1;fontSize=16;fontFamily=Georgia;fontColor=#667788;strokeColor=none;" parent="DKlUDa0g7rmCu-vv5rfz-316" vertex="1">
          <mxGeometry x="10" y="420" width="140" height="40" as="geometry" />
        </mxCell>
        <mxCell id="4LNg5v-IOajOxHjOTWhF-2" value="Justice" style="text;align=center;verticalAlign=middle;whiteSpace=wrap;rounded=0;fontStyle=1;fontSize=16;fontFamily=Georgia;fontColor=#667788;strokeColor=none;" parent="DKlUDa0g7rmCu-vv5rfz-316" vertex="1">
          <mxGeometry x="10" y="640" width="140" height="40" as="geometry" />
        </mxCell>
        <mxCell id="4LNg5v-IOajOxHjOTWhF-4" value="Sacrifice" style="text;align=center;verticalAlign=middle;whiteSpace=wrap;rounded=0;fontStyle=1;fontSize=16;fontFamily=Georgia;fontColor=#667788;strokeColor=none;" parent="DKlUDa0g7rmCu-vv5rfz-316" vertex="1">
          <mxGeometry x="10" y="140" width="140" height="40" as="geometry" />
        </mxCell>
        <mxCell id="DKlUDa0g7rmCu-vv5rfz-14" value="Shapes and Lines" style="" parent="0" />
        <mxCell id="bMIZUlVMKYhtr8G9Qs2D-5" style="edgeStyle=orthogonalEdgeStyle;rounded=1;orthogonalLoop=1;jettySize=auto;html=1;exitX=1;exitY=0.5;exitDx=0;exitDy=0;entryX=0;entryY=0.5;entryDx=0;entryDy=0;strokeWidth=2;strokeColor=#667788;endArrow=none;endFill=0;jumpStyle=arc;curved=0;" parent="DKlUDa0g7rmCu-vv5rfz-14" source="DKlUDa0g7rmCu-vv5rfz-31" target="bMIZUlVMKYhtr8G9Qs2D-1" edge="1">
          <mxGeometry relative="1" as="geometry" />
        </mxCell>
        <mxCell id="bMIZUlVMKYhtr8G9Qs2D-7" style="edgeStyle=orthogonalEdgeStyle;shape=connector;rounded=1;orthogonalLoop=1;jettySize=auto;html=1;exitX=1;exitY=0.5;exitDx=0;exitDy=0;entryX=0;entryY=0.5;entryDx=0;entryDy=0;strokeColor=#667788;strokeWidth=2;align=center;verticalAlign=middle;fontFamily=Helvetica;fontSize=11;fontColor=default;labelBackgroundColor=default;endArrow=none;endFill=0;curved=0;jumpStyle=arc;" parent="DKlUDa0g7rmCu-vv5rfz-14" source="DKlUDa0g7rmCu-vv5rfz-31" target="bMIZUlVMKYhtr8G9Qs2D-2" edge="1">
          <mxGeometry relative="1" as="geometry">
            <Array as="points">
              <mxPoint x="190" y="110" />
              <mxPoint x="190" y="110" />
            </Array>
          </mxGeometry>
        </mxCell>
        <mxCell id="bMIZUlVMKYhtr8G9Qs2D-9" style="edgeStyle=orthogonalEdgeStyle;shape=connector;curved=0;rounded=1;orthogonalLoop=1;jettySize=auto;html=1;exitX=1;exitY=0.5;exitDx=0;exitDy=0;entryX=0;entryY=0.5;entryDx=0;entryDy=0;strokeColor=#667788;strokeWidth=2;align=center;verticalAlign=middle;fontFamily=Helvetica;fontSize=11;fontColor=default;labelBackgroundColor=default;endArrow=none;endFill=0;jumpStyle=arc;" parent="DKlUDa0g7rmCu-vv5rfz-14" source="DKlUDa0g7rmCu-vv5rfz-31" target="bMIZUlVMKYhtr8G9Qs2D-4" edge="1">
          <mxGeometry relative="1" as="geometry">
            <Array as="points">
              <mxPoint x="200" y="110" />
              <mxPoint x="200" y="140" />
            </Array>
          </mxGeometry>
        </mxCell>
        <mxCell id="bMIZUlVMKYhtr8G9Qs2D-34" style="edgeStyle=orthogonalEdgeStyle;shape=connector;curved=0;rounded=1;jumpStyle=arc;orthogonalLoop=1;jettySize=auto;html=1;exitX=1;exitY=0.5;exitDx=0;exitDy=0;entryX=0;entryY=0.5;entryDx=0;entryDy=0;strokeColor=#667788;strokeWidth=2;align=center;verticalAlign=middle;fontFamily=Helvetica;fontSize=11;fontColor=default;labelBackgroundColor=default;endArrow=none;endFill=0;" parent="DKlUDa0g7rmCu-vv5rfz-14" source="DKlUDa0g7rmCu-vv5rfz-31" target="bMIZUlVMKYhtr8G9Qs2D-16" edge="1">
          <mxGeometry relative="1" as="geometry">
            <Array as="points">
              <mxPoint x="200" y="110" />
              <mxPoint x="200" y="160" />
              <mxPoint x="800" y="160" />
              <mxPoint x="800" y="300" />
            </Array>
          </mxGeometry>
        </mxCell>
        <mxCell id="DKlUDa0g7rmCu-vv5rfz-31" value="Aspirant&#39;s Aegis" style="rounded=1;strokeWidth=2;strokeColor=#667788;textShadow=0;labelBackgroundColor=none;whiteSpace=wrap;fontSize=15;fontFamily=Georgia;fillColor=#147A6D;fontColor=#FFFFFF;" parent="DKlUDa0g7rmCu-vv5rfz-14" vertex="1">
          <mxGeometry x="20" y="90" width="160" height="40" as="geometry" />
        </mxCell>
        <mxCell id="bMIZUlVMKYhtr8G9Qs2D-6" style="edgeStyle=orthogonalEdgeStyle;shape=connector;rounded=0;orthogonalLoop=1;jettySize=auto;html=1;exitX=1;exitY=0.5;exitDx=0;exitDy=0;entryX=0;entryY=0.5;entryDx=0;entryDy=0;strokeColor=#667788;strokeWidth=2;align=center;verticalAlign=middle;fontFamily=Helvetica;fontSize=11;fontColor=default;labelBackgroundColor=default;endArrow=none;endFill=0;jumpStyle=arc;" parent="DKlUDa0g7rmCu-vv5rfz-14" source="bMIZUlVMKYhtr8G9Qs2D-1" target="bMIZUlVMKYhtr8G9Qs2D-3" edge="1">
          <mxGeometry relative="1" as="geometry" />
        </mxCell>
        <mxCell id="bMIZUlVMKYhtr8G9Qs2D-1" value="Vessel of Salvation" style="rounded=1;strokeWidth=2;strokeColor=#667788;textShadow=0;labelBackgroundColor=none;whiteSpace=wrap;fontSize=15;fontFamily=Georgia;fillColor=#B3D56A;fontStyle=1" parent="DKlUDa0g7rmCu-vv5rfz-14" vertex="1">
          <mxGeometry x="220" y="60" width="160" height="40" as="geometry" />
        </mxCell>
        <mxCell id="bMIZUlVMKYhtr8G9Qs2D-2" value="Tamsine&#39;s Kiss" style="rounded=1;strokeWidth=2;strokeColor=#667788;textShadow=0;labelBackgroundColor=none;whiteSpace=wrap;fontSize=15;fontFamily=Georgia;fillColor=#147A6D;fontStyle=1;fontColor=#FFFFFF;" parent="DKlUDa0g7rmCu-vv5rfz-14" vertex="1">
          <mxGeometry x="420" y="90" width="160" height="40" as="geometry" />
        </mxCell>
        <mxCell id="bMIZUlVMKYhtr8G9Qs2D-3" value="Alamhif&#39;s Gift" style="rounded=1;strokeWidth=2;strokeColor=#667788;textShadow=0;labelBackgroundColor=none;whiteSpace=wrap;fontSize=15;fontFamily=Georgia;fillColor=#B3D56A;fontStyle=1" parent="DKlUDa0g7rmCu-vv5rfz-14" vertex="1">
          <mxGeometry x="1020" y="60" width="160" height="40" as="geometry" />
        </mxCell>
        <mxCell id="bMIZUlVMKYhtr8G9Qs2D-4" value="Crusader&#39;s Challenge" style="rounded=1;strokeWidth=2;strokeColor=#667788;textShadow=0;labelBackgroundColor=none;whiteSpace=wrap;fontSize=15;fontFamily=Georgia;fillColor=#AAC8EB;fontStyle=1;gradientColor=#B3D56A;gradientDirection=east;" parent="DKlUDa0g7rmCu-vv5rfz-14" vertex="1">
          <mxGeometry x="1020" y="120" width="160" height="40" as="geometry" />
        </mxCell>
        <mxCell id="bMIZUlVMKYhtr8G9Qs2D-22" style="edgeStyle=orthogonalEdgeStyle;shape=connector;curved=0;rounded=1;orthogonalLoop=1;jettySize=auto;html=1;exitX=1;exitY=0.5;exitDx=0;exitDy=0;entryX=0;entryY=0.5;entryDx=0;entryDy=0;strokeColor=#667788;strokeWidth=2;align=center;verticalAlign=middle;fontFamily=Helvetica;fontSize=11;fontColor=default;labelBackgroundColor=default;endArrow=none;endFill=0;jumpStyle=arc;" parent="DKlUDa0g7rmCu-vv5rfz-14" source="bMIZUlVMKYhtr8G9Qs2D-10" target="bMIZUlVMKYhtr8G9Qs2D-12" edge="1">
          <mxGeometry relative="1" as="geometry">
            <Array as="points">
              <mxPoint x="200" y="330" />
              <mxPoint x="200" y="420" />
            </Array>
          </mxGeometry>
        </mxCell>
        <mxCell id="bMIZUlVMKYhtr8G9Qs2D-23" style="edgeStyle=orthogonalEdgeStyle;shape=connector;curved=0;rounded=1;orthogonalLoop=1;jettySize=auto;html=1;exitX=1;exitY=0.5;exitDx=0;exitDy=0;entryX=0;entryY=0.5;entryDx=0;entryDy=0;strokeColor=#667788;strokeWidth=2;align=center;verticalAlign=middle;fontFamily=Helvetica;fontSize=11;fontColor=default;labelBackgroundColor=default;endArrow=none;endFill=0;jumpStyle=arc;" parent="DKlUDa0g7rmCu-vv5rfz-14" source="bMIZUlVMKYhtr8G9Qs2D-10" target="bMIZUlVMKYhtr8G9Qs2D-14" edge="1">
          <mxGeometry relative="1" as="geometry" />
        </mxCell>
        <mxCell id="bMIZUlVMKYhtr8G9Qs2D-32" style="edgeStyle=orthogonalEdgeStyle;shape=connector;curved=0;rounded=1;jumpStyle=arc;orthogonalLoop=1;jettySize=auto;html=1;exitX=1;exitY=0.5;exitDx=0;exitDy=0;entryX=0;entryY=0.5;entryDx=0;entryDy=0;strokeColor=#667788;strokeWidth=2;align=center;verticalAlign=middle;fontFamily=Helvetica;fontSize=11;fontColor=default;labelBackgroundColor=default;endArrow=none;endFill=0;" parent="DKlUDa0g7rmCu-vv5rfz-14" source="bMIZUlVMKYhtr8G9Qs2D-10" target="bMIZUlVMKYhtr8G9Qs2D-11" edge="1">
          <mxGeometry relative="1" as="geometry" />
        </mxCell>
        <mxCell id="bMIZUlVMKYhtr8G9Qs2D-40" style="edgeStyle=orthogonalEdgeStyle;shape=connector;curved=0;rounded=1;jumpStyle=arc;orthogonalLoop=1;jettySize=auto;html=1;exitX=1;exitY=0.5;exitDx=0;exitDy=0;entryX=0;entryY=0.5;entryDx=0;entryDy=0;strokeColor=#667788;strokeWidth=2;align=center;verticalAlign=middle;fontFamily=Helvetica;fontSize=11;fontColor=default;labelBackgroundColor=default;endArrow=none;endFill=0;" parent="DKlUDa0g7rmCu-vv5rfz-14" source="bMIZUlVMKYhtr8G9Qs2D-10" target="bMIZUlVMKYhtr8G9Qs2D-13" edge="1">
          <mxGeometry relative="1" as="geometry" />
        </mxCell>
        <mxCell id="bMIZUlVMKYhtr8G9Qs2D-10" value="Heroic Strength" style="rounded=1;strokeWidth=2;strokeColor=#667788;textShadow=0;labelBackgroundColor=none;whiteSpace=wrap;fontSize=15;fontFamily=Georgia;fillColor=#AAC8EB;" parent="DKlUDa0g7rmCu-vv5rfz-14" vertex="1">
          <mxGeometry x="20" y="310" width="160" height="40" as="geometry" />
        </mxCell>
        <mxCell id="bMIZUlVMKYhtr8G9Qs2D-27" style="edgeStyle=orthogonalEdgeStyle;shape=connector;curved=0;rounded=1;orthogonalLoop=1;jettySize=auto;html=1;exitX=1;exitY=0.5;exitDx=0;exitDy=0;entryX=0;entryY=0.5;entryDx=0;entryDy=0;strokeColor=#667788;strokeWidth=2;align=center;verticalAlign=middle;fontFamily=Helvetica;fontSize=11;fontColor=default;labelBackgroundColor=default;endArrow=none;endFill=0;jumpStyle=arc;" parent="DKlUDa0g7rmCu-vv5rfz-14" source="bMIZUlVMKYhtr8G9Qs2D-11" target="bMIZUlVMKYhtr8G9Qs2D-4" edge="1">
          <mxGeometry relative="1" as="geometry">
            <Array as="points">
              <mxPoint x="400" y="240" />
              <mxPoint x="400" y="140" />
            </Array>
          </mxGeometry>
        </mxCell>
        <mxCell id="bMIZUlVMKYhtr8G9Qs2D-29" style="edgeStyle=orthogonalEdgeStyle;shape=connector;curved=0;rounded=1;jumpStyle=none;orthogonalLoop=1;jettySize=auto;html=1;exitX=1;exitY=0.5;exitDx=0;exitDy=0;strokeColor=#667788;strokeWidth=2;align=center;verticalAlign=middle;fontFamily=Helvetica;fontSize=11;fontColor=default;labelBackgroundColor=default;endArrow=none;endFill=0;dashed=1;" parent="DKlUDa0g7rmCu-vv5rfz-14" source="bMIZUlVMKYhtr8G9Qs2D-11" edge="1">
          <mxGeometry relative="1" as="geometry">
            <mxPoint x="410" y="360" as="targetPoint" />
            <Array as="points">
              <mxPoint x="400" y="240" />
              <mxPoint x="400" y="360" />
            </Array>
          </mxGeometry>
        </mxCell>
        <mxCell id="bMIZUlVMKYhtr8G9Qs2D-60" style="edgeStyle=orthogonalEdgeStyle;shape=connector;curved=0;rounded=1;jumpStyle=arc;orthogonalLoop=1;jettySize=auto;html=1;exitX=1;exitY=0.5;exitDx=0;exitDy=0;entryX=0;entryY=0.25;entryDx=0;entryDy=0;strokeColor=#667788;strokeWidth=2;align=center;verticalAlign=middle;fontFamily=Helvetica;fontSize=11;fontColor=default;labelBackgroundColor=default;endArrow=none;endFill=0;" parent="DKlUDa0g7rmCu-vv5rfz-14" source="bMIZUlVMKYhtr8G9Qs2D-11" target="bMIZUlVMKYhtr8G9Qs2D-48" edge="1">
          <mxGeometry relative="1" as="geometry">
            <Array as="points">
              <mxPoint x="460" y="240" />
              <mxPoint x="460" y="510" />
            </Array>
          </mxGeometry>
        </mxCell>
        <mxCell id="bMIZUlVMKYhtr8G9Qs2D-11" value="Courage" style="rounded=1;strokeWidth=2;strokeColor=#667788;textShadow=0;labelBackgroundColor=none;whiteSpace=wrap;fontSize=15;fontFamily=Georgia;fillColor=#147A6D;fontColor=#FFFFFF;" parent="DKlUDa0g7rmCu-vv5rfz-14" vertex="1">
          <mxGeometry x="220" y="220" width="160" height="40" as="geometry" />
        </mxCell>
        <mxCell id="bMIZUlVMKYhtr8G9Qs2D-33" style="edgeStyle=orthogonalEdgeStyle;shape=connector;curved=0;rounded=1;jumpStyle=arc;orthogonalLoop=1;jettySize=auto;html=1;exitX=1;exitY=0.5;exitDx=0;exitDy=0;strokeColor=#667788;strokeWidth=2;align=center;verticalAlign=middle;fontFamily=Helvetica;fontSize=11;fontColor=default;labelBackgroundColor=default;endArrow=none;endFill=0;entryX=0;entryY=0.5;entryDx=0;entryDy=0;" parent="DKlUDa0g7rmCu-vv5rfz-14" source="bMIZUlVMKYhtr8G9Qs2D-12" target="bMIZUlVMKYhtr8G9Qs2D-18" edge="1">
          <mxGeometry relative="1" as="geometry">
            <mxPoint x="600" y="420" as="targetPoint" />
            <Array as="points" />
          </mxGeometry>
        </mxCell>
        <mxCell id="bMIZUlVMKYhtr8G9Qs2D-100" style="edgeStyle=orthogonalEdgeStyle;shape=connector;curved=0;rounded=1;jumpStyle=arc;orthogonalLoop=1;jettySize=auto;html=1;exitX=1;exitY=0.75;exitDx=0;exitDy=0;strokeColor=#667788;strokeWidth=2;align=center;verticalAlign=middle;fontFamily=Helvetica;fontSize=11;fontColor=default;labelBackgroundColor=default;endArrow=none;endFill=0;dashed=1;" parent="DKlUDa0g7rmCu-vv5rfz-14" source="bMIZUlVMKYhtr8G9Qs2D-12" edge="1">
          <mxGeometry relative="1" as="geometry">
            <mxPoint x="600" y="640" as="targetPoint" />
            <Array as="points">
              <mxPoint x="590" y="430" />
              <mxPoint x="590" y="640" />
            </Array>
          </mxGeometry>
        </mxCell>
        <mxCell id="bMIZUlVMKYhtr8G9Qs2D-12" value="Divine Guidance" style="rounded=1;strokeWidth=2;strokeColor=#667788;textShadow=0;labelBackgroundColor=none;whiteSpace=wrap;fontSize=15;fontFamily=Georgia;fillColor=#AAC8EB;" parent="DKlUDa0g7rmCu-vv5rfz-14" vertex="1">
          <mxGeometry x="220" y="400" width="160" height="40" as="geometry" />
        </mxCell>
        <mxCell id="bMIZUlVMKYhtr8G9Qs2D-39" style="edgeStyle=orthogonalEdgeStyle;shape=connector;curved=0;rounded=1;jumpStyle=none;orthogonalLoop=1;jettySize=auto;html=1;exitX=1;exitY=0.5;exitDx=0;exitDy=0;entryX=0;entryY=0.5;entryDx=0;entryDy=0;strokeColor=#667788;strokeWidth=2;align=center;verticalAlign=middle;fontFamily=Helvetica;fontSize=11;fontColor=default;labelBackgroundColor=default;endArrow=classic;endFill=1;dashed=1;" parent="DKlUDa0g7rmCu-vv5rfz-14" source="bMIZUlVMKYhtr8G9Qs2D-13" target="bMIZUlVMKYhtr8G9Qs2D-15" edge="1">
          <mxGeometry relative="1" as="geometry">
            <Array as="points">
              <mxPoint x="590" y="360" />
              <mxPoint x="590" y="360" />
            </Array>
          </mxGeometry>
        </mxCell>
        <mxCell id="bMIZUlVMKYhtr8G9Qs2D-13" value="Righteous Wrath" style="rounded=1;strokeWidth=2;strokeColor=#667788;textShadow=0;labelBackgroundColor=none;whiteSpace=wrap;fontSize=15;fontFamily=Georgia;fillColor=#AAC8EB;" parent="DKlUDa0g7rmCu-vv5rfz-14" vertex="1">
          <mxGeometry x="220" y="340" width="160" height="40" as="geometry" />
        </mxCell>
        <mxCell id="bMIZUlVMKYhtr8G9Qs2D-30" style="edgeStyle=orthogonalEdgeStyle;shape=connector;curved=0;rounded=1;jumpStyle=arc;orthogonalLoop=1;jettySize=auto;html=1;exitX=1;exitY=0.5;exitDx=0;exitDy=0;entryX=0;entryY=0.5;entryDx=0;entryDy=0;strokeColor=#667788;strokeWidth=2;align=center;verticalAlign=middle;fontFamily=Helvetica;fontSize=11;fontColor=default;labelBackgroundColor=default;endArrow=none;endFill=0;" parent="DKlUDa0g7rmCu-vv5rfz-14" source="bMIZUlVMKYhtr8G9Qs2D-14" target="bMIZUlVMKYhtr8G9Qs2D-20" edge="1">
          <mxGeometry relative="1" as="geometry">
            <Array as="points">
              <mxPoint x="480" y="300" />
              <mxPoint x="480" y="300" />
            </Array>
          </mxGeometry>
        </mxCell>
        <mxCell id="bMIZUlVMKYhtr8G9Qs2D-31" style="edgeStyle=orthogonalEdgeStyle;shape=connector;curved=0;rounded=1;jumpStyle=arc;orthogonalLoop=1;jettySize=auto;html=1;exitX=1;exitY=0.5;exitDx=0;exitDy=0;entryX=0;entryY=0.5;entryDx=0;entryDy=0;strokeColor=#667788;strokeWidth=2;align=center;verticalAlign=middle;fontFamily=Helvetica;fontSize=11;fontColor=default;labelBackgroundColor=default;endArrow=none;endFill=0;" parent="DKlUDa0g7rmCu-vv5rfz-14" source="bMIZUlVMKYhtr8G9Qs2D-14" target="bMIZUlVMKYhtr8G9Qs2D-21" edge="1">
          <mxGeometry relative="1" as="geometry">
            <Array as="points">
              <mxPoint x="540" y="300" />
              <mxPoint x="540" y="240" />
            </Array>
          </mxGeometry>
        </mxCell>
        <mxCell id="bMIZUlVMKYhtr8G9Qs2D-14" value="Sentinel&#39;s Resolve" style="rounded=1;strokeWidth=2;strokeColor=#667788;textShadow=0;labelBackgroundColor=none;whiteSpace=wrap;fontSize=15;fontFamily=Georgia;fillColor=#AAC8EB;" parent="DKlUDa0g7rmCu-vv5rfz-14" vertex="1">
          <mxGeometry x="220" y="280" width="160" height="40" as="geometry" />
        </mxCell>
        <mxCell id="bMIZUlVMKYhtr8G9Qs2D-37" style="edgeStyle=orthogonalEdgeStyle;shape=connector;curved=0;rounded=1;jumpStyle=arc;orthogonalLoop=1;jettySize=auto;html=1;exitX=1;exitY=0.5;exitDx=0;exitDy=0;entryX=0;entryY=0.5;entryDx=0;entryDy=0;strokeColor=#667788;strokeWidth=2;align=center;verticalAlign=middle;fontFamily=Helvetica;fontSize=11;fontColor=default;labelBackgroundColor=default;endArrow=none;endFill=0;" parent="DKlUDa0g7rmCu-vv5rfz-14" source="bMIZUlVMKYhtr8G9Qs2D-15" target="bMIZUlVMKYhtr8G9Qs2D-19" edge="1">
          <mxGeometry relative="1" as="geometry">
            <Array as="points">
              <mxPoint x="800" y="360" />
              <mxPoint x="800" y="360" />
            </Array>
          </mxGeometry>
        </mxCell>
        <mxCell id="bMIZUlVMKYhtr8G9Qs2D-15" value="Anti-Stun" style="rounded=1;strokeWidth=2;strokeColor=#667788;textShadow=0;labelBackgroundColor=none;whiteSpace=wrap;fontSize=15;fontFamily=Georgia;fillColor=#B3D56A;" parent="DKlUDa0g7rmCu-vv5rfz-14" vertex="1">
          <mxGeometry x="620" y="340" width="160" height="40" as="geometry" />
        </mxCell>
        <mxCell id="bMIZUlVMKYhtr8G9Qs2D-41" style="edgeStyle=orthogonalEdgeStyle;shape=connector;curved=0;rounded=1;jumpStyle=arc;orthogonalLoop=1;jettySize=auto;html=1;exitX=1;exitY=0.5;exitDx=0;exitDy=0;entryX=0.5;entryY=0;entryDx=0;entryDy=0;strokeColor=#667788;strokeWidth=2;align=center;verticalAlign=middle;fontFamily=Helvetica;fontSize=11;fontColor=default;labelBackgroundColor=default;endArrow=classic;endFill=1;dashed=1;" parent="DKlUDa0g7rmCu-vv5rfz-14" source="bMIZUlVMKYhtr8G9Qs2D-16" target="bMIZUlVMKYhtr8G9Qs2D-17" edge="1">
          <mxGeometry relative="1" as="geometry">
            <Array as="points">
              <mxPoint x="990" y="300" />
              <mxPoint x="990" y="340" />
              <mxPoint x="900" y="340" />
            </Array>
          </mxGeometry>
        </mxCell>
        <mxCell id="bMIZUlVMKYhtr8G9Qs2D-65" style="edgeStyle=orthogonalEdgeStyle;shape=connector;curved=0;rounded=1;jumpStyle=arc;orthogonalLoop=1;jettySize=auto;html=1;exitX=1;exitY=0.5;exitDx=0;exitDy=0;entryX=0;entryY=0.5;entryDx=0;entryDy=0;strokeColor=#667788;strokeWidth=2;align=center;verticalAlign=middle;fontFamily=Helvetica;fontSize=11;fontColor=default;labelBackgroundColor=default;endArrow=none;endFill=0;" parent="DKlUDa0g7rmCu-vv5rfz-14" source="bMIZUlVMKYhtr8G9Qs2D-16" target="bMIZUlVMKYhtr8G9Qs2D-51" edge="1">
          <mxGeometry relative="1" as="geometry" />
        </mxCell>
        <mxCell id="bMIZUlVMKYhtr8G9Qs2D-16" value="Divine Armor" style="rounded=1;strokeWidth=2;strokeColor=#667788;textShadow=0;labelBackgroundColor=none;whiteSpace=wrap;fontSize=15;fontFamily=Georgia;fillColor=#B3D56A;fontStyle=1" parent="DKlUDa0g7rmCu-vv5rfz-14" vertex="1">
          <mxGeometry x="820" y="280" width="160" height="40" as="geometry" />
        </mxCell>
        <mxCell id="bMIZUlVMKYhtr8G9Qs2D-17" value="Bond Armaments" style="rounded=1;strokeWidth=2;strokeColor=#667788;textShadow=0;labelBackgroundColor=none;whiteSpace=wrap;fontSize=15;fontFamily=Georgia;fillColor=#B3D56A;fontStyle=1" parent="DKlUDa0g7rmCu-vv5rfz-14" vertex="1">
          <mxGeometry x="820" y="400" width="160" height="40" as="geometry" />
        </mxCell>
        <mxCell id="bMIZUlVMKYhtr8G9Qs2D-36" style="edgeStyle=orthogonalEdgeStyle;shape=connector;curved=0;rounded=1;jumpStyle=arc;orthogonalLoop=1;jettySize=auto;html=1;exitX=1;exitY=0.5;exitDx=0;exitDy=0;entryX=0;entryY=0.5;entryDx=0;entryDy=0;strokeColor=#667788;strokeWidth=2;align=center;verticalAlign=middle;fontFamily=Helvetica;fontSize=11;fontColor=default;labelBackgroundColor=default;endArrow=none;endFill=0;" parent="DKlUDa0g7rmCu-vv5rfz-14" source="bMIZUlVMKYhtr8G9Qs2D-18" target="bMIZUlVMKYhtr8G9Qs2D-19" edge="1">
          <mxGeometry relative="1" as="geometry">
            <Array as="points">
              <mxPoint x="800" y="420" />
              <mxPoint x="800" y="360" />
            </Array>
          </mxGeometry>
        </mxCell>
        <mxCell id="bMIZUlVMKYhtr8G9Qs2D-18" value="Marshal Order" style="rounded=1;strokeWidth=2;strokeColor=#667788;textShadow=0;labelBackgroundColor=none;whiteSpace=wrap;fontSize=15;fontFamily=Georgia;fillColor=#AAC8EB;fontStyle=1" parent="DKlUDa0g7rmCu-vv5rfz-14" vertex="1">
          <mxGeometry x="620" y="400" width="160" height="40" as="geometry" />
        </mxCell>
        <mxCell id="bMIZUlVMKYhtr8G9Qs2D-19" value="Truffenyi&#39;s Rally" style="rounded=1;strokeWidth=2;strokeColor=#667788;textShadow=0;labelBackgroundColor=none;whiteSpace=wrap;fontSize=15;fontFamily=Georgia;fillColor=#AAC8EB;fontStyle=1;gradientColor=#B3D56A;gradientDirection=east;" parent="DKlUDa0g7rmCu-vv5rfz-14" vertex="1">
          <mxGeometry x="1020" y="340" width="160" height="40" as="geometry" />
        </mxCell>
        <mxCell id="bMIZUlVMKYhtr8G9Qs2D-35" style="edgeStyle=orthogonalEdgeStyle;shape=connector;curved=0;rounded=1;jumpStyle=arc;orthogonalLoop=1;jettySize=auto;html=1;exitX=1;exitY=0.5;exitDx=0;exitDy=0;entryX=0;entryY=0.5;entryDx=0;entryDy=0;strokeColor=#667788;strokeWidth=2;align=center;verticalAlign=middle;fontFamily=Helvetica;fontSize=11;fontColor=default;labelBackgroundColor=default;endArrow=none;endFill=0;" parent="DKlUDa0g7rmCu-vv5rfz-14" source="bMIZUlVMKYhtr8G9Qs2D-20" target="bMIZUlVMKYhtr8G9Qs2D-16" edge="1">
          <mxGeometry relative="1" as="geometry" />
        </mxCell>
        <mxCell id="bMIZUlVMKYhtr8G9Qs2D-20" value="Veteran Insight" style="rounded=1;strokeWidth=2;strokeColor=#667788;textShadow=0;labelBackgroundColor=none;whiteSpace=wrap;fontSize=15;fontFamily=Georgia;fillColor=#D5D0CA;fontStyle=1" parent="DKlUDa0g7rmCu-vv5rfz-14" vertex="1">
          <mxGeometry x="620" y="280" width="160" height="40" as="geometry" />
        </mxCell>
        <mxCell id="bMIZUlVMKYhtr8G9Qs2D-21" value="Soldier&#39;s Prayer" style="rounded=1;strokeWidth=2;strokeColor=#667788;textShadow=0;labelBackgroundColor=none;whiteSpace=wrap;fontSize=15;fontFamily=Georgia;fillColor=#147A6D;fontStyle=0;fontColor=#FFFFFF;" parent="DKlUDa0g7rmCu-vv5rfz-14" vertex="1">
          <mxGeometry x="620" y="220" width="160" height="40" as="geometry" />
        </mxCell>
        <mxCell id="bMIZUlVMKYhtr8G9Qs2D-54" style="edgeStyle=orthogonalEdgeStyle;shape=connector;curved=0;rounded=1;jumpStyle=arc;orthogonalLoop=1;jettySize=auto;html=1;exitX=1;exitY=0.5;exitDx=0;exitDy=0;entryX=0;entryY=0.5;entryDx=0;entryDy=0;strokeColor=#667788;strokeWidth=2;align=center;verticalAlign=middle;fontFamily=Helvetica;fontSize=11;fontColor=default;labelBackgroundColor=default;endArrow=none;endFill=0;" parent="DKlUDa0g7rmCu-vv5rfz-14" source="bMIZUlVMKYhtr8G9Qs2D-42" target="bMIZUlVMKYhtr8G9Qs2D-46" edge="1">
          <mxGeometry relative="1" as="geometry" />
        </mxCell>
        <mxCell id="bMIZUlVMKYhtr8G9Qs2D-55" style="edgeStyle=orthogonalEdgeStyle;shape=connector;curved=0;rounded=1;jumpStyle=arc;orthogonalLoop=1;jettySize=auto;html=1;exitX=1;exitY=0.5;exitDx=0;exitDy=0;entryX=0;entryY=0.5;entryDx=0;entryDy=0;strokeColor=#667788;strokeWidth=2;align=center;verticalAlign=middle;fontFamily=Helvetica;fontSize=11;fontColor=default;labelBackgroundColor=default;endArrow=none;endFill=0;" parent="DKlUDa0g7rmCu-vv5rfz-14" source="bMIZUlVMKYhtr8G9Qs2D-42" target="bMIZUlVMKYhtr8G9Qs2D-44" edge="1">
          <mxGeometry relative="1" as="geometry" />
        </mxCell>
        <mxCell id="bMIZUlVMKYhtr8G9Qs2D-56" style="edgeStyle=orthogonalEdgeStyle;shape=connector;curved=0;rounded=1;jumpStyle=arc;orthogonalLoop=1;jettySize=auto;html=1;exitX=1;exitY=0.5;exitDx=0;exitDy=0;entryX=0;entryY=0.5;entryDx=0;entryDy=0;strokeColor=#667788;strokeWidth=2;align=center;verticalAlign=middle;fontFamily=Helvetica;fontSize=11;fontColor=default;labelBackgroundColor=default;endArrow=none;endFill=0;" parent="DKlUDa0g7rmCu-vv5rfz-14" source="bMIZUlVMKYhtr8G9Qs2D-42" target="bMIZUlVMKYhtr8G9Qs2D-43" edge="1">
          <mxGeometry relative="1" as="geometry" />
        </mxCell>
        <mxCell id="bMIZUlVMKYhtr8G9Qs2D-63" style="edgeStyle=orthogonalEdgeStyle;shape=connector;curved=0;rounded=1;jumpStyle=arc;orthogonalLoop=1;jettySize=auto;html=1;exitX=1;exitY=0.5;exitDx=0;exitDy=0;entryX=0;entryY=0.5;entryDx=0;entryDy=0;strokeColor=#667788;strokeWidth=2;align=center;verticalAlign=middle;fontFamily=Helvetica;fontSize=11;fontColor=default;labelBackgroundColor=default;endArrow=none;endFill=0;" parent="DKlUDa0g7rmCu-vv5rfz-14" source="bMIZUlVMKYhtr8G9Qs2D-42" target="bMIZUlVMKYhtr8G9Qs2D-51" edge="1">
          <mxGeometry relative="1" as="geometry">
            <Array as="points">
              <mxPoint x="200" y="580" />
              <mxPoint x="200" y="610" />
            </Array>
          </mxGeometry>
        </mxCell>
        <mxCell id="bMIZUlVMKYhtr8G9Qs2D-42" value="Stun Foe" style="rounded=1;strokeWidth=2;strokeColor=#667788;textShadow=0;labelBackgroundColor=none;whiteSpace=wrap;fontSize=15;fontFamily=Georgia;fillColor=#EBCD00;" parent="DKlUDa0g7rmCu-vv5rfz-14" vertex="1">
          <mxGeometry x="20" y="560" width="160" height="40" as="geometry" />
        </mxCell>
        <mxCell id="bMIZUlVMKYhtr8G9Qs2D-57" style="edgeStyle=orthogonalEdgeStyle;shape=connector;curved=0;rounded=1;jumpStyle=arc;orthogonalLoop=1;jettySize=auto;html=1;exitX=1;exitY=0.5;exitDx=0;exitDy=0;entryX=0;entryY=0.5;entryDx=0;entryDy=0;strokeColor=#667788;strokeWidth=2;align=center;verticalAlign=middle;fontFamily=Helvetica;fontSize=11;fontColor=default;labelBackgroundColor=default;endArrow=none;endFill=0;" parent="DKlUDa0g7rmCu-vv5rfz-14" source="bMIZUlVMKYhtr8G9Qs2D-43" target="bMIZUlVMKYhtr8G9Qs2D-45" edge="1">
          <mxGeometry relative="1" as="geometry" />
        </mxCell>
        <mxCell id="bMIZUlVMKYhtr8G9Qs2D-58" style="edgeStyle=orthogonalEdgeStyle;shape=connector;curved=0;rounded=1;jumpStyle=arc;orthogonalLoop=1;jettySize=auto;html=1;exitX=1;exitY=0.25;exitDx=0;exitDy=0;entryX=0;entryY=0.25;entryDx=0;entryDy=0;strokeColor=#667788;strokeWidth=2;align=center;verticalAlign=middle;fontFamily=Helvetica;fontSize=11;fontColor=default;labelBackgroundColor=default;endArrow=none;endFill=0;" parent="DKlUDa0g7rmCu-vv5rfz-14" source="bMIZUlVMKYhtr8G9Qs2D-43" target="bMIZUlVMKYhtr8G9Qs2D-48" edge="1">
          <mxGeometry relative="1" as="geometry">
            <Array as="points">
              <mxPoint x="610" y="510" />
              <mxPoint x="610" y="510" />
            </Array>
          </mxGeometry>
        </mxCell>
        <mxCell id="bMIZUlVMKYhtr8G9Qs2D-43" value="Halt" style="rounded=1;strokeWidth=2;strokeColor=#667788;textShadow=0;labelBackgroundColor=none;whiteSpace=wrap;fontSize=15;fontFamily=Georgia;fillColor=#EBCD00;" parent="DKlUDa0g7rmCu-vv5rfz-14" vertex="1">
          <mxGeometry x="220" y="500" width="160" height="40" as="geometry" />
        </mxCell>
        <mxCell id="bMIZUlVMKYhtr8G9Qs2D-61" style="edgeStyle=orthogonalEdgeStyle;shape=connector;curved=0;rounded=1;jumpStyle=arc;orthogonalLoop=1;jettySize=auto;html=1;exitX=1;exitY=0.5;exitDx=0;exitDy=0;entryX=0;entryY=0.5;entryDx=0;entryDy=0;strokeColor=#667788;strokeWidth=2;align=center;verticalAlign=middle;fontFamily=Helvetica;fontSize=11;fontColor=default;labelBackgroundColor=default;endArrow=none;endFill=0;" parent="DKlUDa0g7rmCu-vv5rfz-14" source="bMIZUlVMKYhtr8G9Qs2D-44" target="bMIZUlVMKYhtr8G9Qs2D-49" edge="1">
          <mxGeometry relative="1" as="geometry">
            <Array as="points">
              <mxPoint x="800" y="580" />
              <mxPoint x="800" y="520" />
            </Array>
          </mxGeometry>
        </mxCell>
        <mxCell id="bMIZUlVMKYhtr8G9Qs2D-62" style="edgeStyle=orthogonalEdgeStyle;shape=connector;curved=0;rounded=1;jumpStyle=arc;orthogonalLoop=1;jettySize=auto;html=1;exitX=1;exitY=0.5;exitDx=0;exitDy=0;entryX=0;entryY=0.5;entryDx=0;entryDy=0;strokeColor=#667788;strokeWidth=2;align=center;verticalAlign=middle;fontFamily=Helvetica;fontSize=11;fontColor=default;labelBackgroundColor=default;endArrow=none;endFill=0;" parent="DKlUDa0g7rmCu-vv5rfz-14" source="bMIZUlVMKYhtr8G9Qs2D-44" target="bMIZUlVMKYhtr8G9Qs2D-50" edge="1">
          <mxGeometry relative="1" as="geometry">
            <Array as="points">
              <mxPoint x="810" y="580" />
              <mxPoint x="810" y="580" />
            </Array>
          </mxGeometry>
        </mxCell>
        <mxCell id="bMIZUlVMKYhtr8G9Qs2D-44" value="Footman&#39;s Strike" style="rounded=1;strokeWidth=2;strokeColor=#667788;textShadow=0;labelBackgroundColor=none;whiteSpace=wrap;fontSize=15;fontFamily=Georgia;fillColor=#E80538;fontColor=#FFFFFF;" parent="DKlUDa0g7rmCu-vv5rfz-14" vertex="1">
          <mxGeometry x="220" y="560" width="160" height="40" as="geometry" />
        </mxCell>
        <mxCell id="bMIZUlVMKYhtr8G9Qs2D-45" value="Shatter" style="rounded=1;strokeWidth=2;strokeColor=#667788;textShadow=0;labelBackgroundColor=none;whiteSpace=wrap;fontSize=15;fontFamily=Georgia;fillColor=#EBCD00;" parent="DKlUDa0g7rmCu-vv5rfz-14" vertex="1">
          <mxGeometry x="420" y="530" width="160" height="40" as="geometry" />
        </mxCell>
        <mxCell id="bMIZUlVMKYhtr8G9Qs2D-59" style="edgeStyle=orthogonalEdgeStyle;shape=connector;curved=0;rounded=1;jumpStyle=arc;orthogonalLoop=1;jettySize=auto;html=1;exitX=1;exitY=0.5;exitDx=0;exitDy=0;entryX=0;entryY=0.5;entryDx=0;entryDy=0;strokeColor=#667788;strokeWidth=2;align=center;verticalAlign=middle;fontFamily=Helvetica;fontSize=11;fontColor=default;labelBackgroundColor=default;endArrow=classic;endFill=1;dashed=1;" parent="DKlUDa0g7rmCu-vv5rfz-14" source="bMIZUlVMKYhtr8G9Qs2D-46" target="bMIZUlVMKYhtr8G9Qs2D-47" edge="1">
          <mxGeometry relative="1" as="geometry" />
        </mxCell>
        <mxCell id="bMIZUlVMKYhtr8G9Qs2D-46" value="Hands of Justice" style="rounded=1;strokeWidth=2;strokeColor=#667788;textShadow=0;labelBackgroundColor=none;whiteSpace=wrap;fontSize=15;fontFamily=Georgia;fillColor=#B3D56A;" parent="DKlUDa0g7rmCu-vv5rfz-14" vertex="1">
          <mxGeometry x="220" y="620" width="160" height="40" as="geometry" />
        </mxCell>
        <mxCell id="bMIZUlVMKYhtr8G9Qs2D-47" value="Clarity" style="rounded=1;strokeWidth=2;strokeColor=#667788;textShadow=0;labelBackgroundColor=none;whiteSpace=wrap;fontSize=15;fontFamily=Georgia;fillColor=#AAC8EB;" parent="DKlUDa0g7rmCu-vv5rfz-14" vertex="1">
          <mxGeometry x="620" y="620" width="160" height="40" as="geometry" />
        </mxCell>
        <mxCell id="bMIZUlVMKYhtr8G9Qs2D-48" value="Banner of Truce" style="rounded=1;strokeWidth=2;strokeColor=#667788;textShadow=0;labelBackgroundColor=none;whiteSpace=wrap;fontSize=15;fontFamily=Georgia;fillColor=#B3D56A;fontStyle=1" parent="DKlUDa0g7rmCu-vv5rfz-14" vertex="1">
          <mxGeometry x="620" y="500" width="160" height="40" as="geometry" />
        </mxCell>
        <mxCell id="bMIZUlVMKYhtr8G9Qs2D-49" value="Rutilor&#39;s Edge" style="rounded=1;strokeWidth=2;strokeColor=#667788;textShadow=0;labelBackgroundColor=none;whiteSpace=wrap;fontSize=15;fontFamily=Georgia;fillColor=#B3D56A;" parent="DKlUDa0g7rmCu-vv5rfz-14" vertex="1">
          <mxGeometry x="820" y="500" width="160" height="40" as="geometry" />
        </mxCell>
        <mxCell id="bMIZUlVMKYhtr8G9Qs2D-64" style="edgeStyle=orthogonalEdgeStyle;shape=connector;curved=0;rounded=1;jumpStyle=arc;orthogonalLoop=1;jettySize=auto;html=1;exitX=1;exitY=0.5;exitDx=0;exitDy=0;entryX=0;entryY=0.5;entryDx=0;entryDy=0;strokeColor=#667788;strokeWidth=2;align=center;verticalAlign=middle;fontFamily=Helvetica;fontSize=11;fontColor=default;labelBackgroundColor=default;endArrow=none;endFill=0;" parent="DKlUDa0g7rmCu-vv5rfz-14" source="bMIZUlVMKYhtr8G9Qs2D-50" target="bMIZUlVMKYhtr8G9Qs2D-52" edge="1">
          <mxGeometry relative="1" as="geometry">
            <Array as="points">
              <mxPoint x="1010" y="580" />
              <mxPoint x="1010" y="520" />
            </Array>
          </mxGeometry>
        </mxCell>
        <mxCell id="bMIZUlVMKYhtr8G9Qs2D-50" value="Rebuke" style="rounded=1;strokeWidth=2;strokeColor=#667788;textShadow=0;labelBackgroundColor=none;whiteSpace=wrap;fontSize=15;fontFamily=Georgia;fillColor=#E80538;fontColor=#FFFFFF;" parent="DKlUDa0g7rmCu-vv5rfz-14" vertex="1">
          <mxGeometry x="820" y="560" width="160" height="40" as="geometry" />
        </mxCell>
        <mxCell id="bMIZUlVMKYhtr8G9Qs2D-51" value="Holy Warrior" style="rounded=1;strokeWidth=2;strokeColor=#667788;textShadow=0;labelBackgroundColor=none;whiteSpace=wrap;fontSize=15;fontFamily=Georgia;fillColor=#147A6D;fontStyle=1;fontColor=#FFFFFF;gradientColor=#B3D56A;gradientDirection=east;" parent="DKlUDa0g7rmCu-vv5rfz-14" vertex="1">
          <mxGeometry x="1020" y="590" width="160" height="40" as="geometry" />
        </mxCell>
        <mxCell id="bMIZUlVMKYhtr8G9Qs2D-52" value="Smite Horde" style="rounded=1;strokeWidth=2;strokeColor=#667788;textShadow=0;labelBackgroundColor=none;whiteSpace=wrap;fontSize=15;fontFamily=Georgia;fillColor=#E80538;fontColor=#FFFFFF;" parent="DKlUDa0g7rmCu-vv5rfz-14" vertex="1">
          <mxGeometry x="1020" y="500" width="160" height="40" as="geometry" />
        </mxCell>
        <mxCell id="bMIZUlVMKYhtr8G9Qs2D-102" style="edgeStyle=orthogonalEdgeStyle;shape=connector;curved=0;rounded=1;jumpStyle=arc;orthogonalLoop=1;jettySize=auto;html=1;exitX=1;exitY=0.5;exitDx=0;exitDy=0;entryX=0.873;entryY=0.99;entryDx=0;entryDy=0;entryPerimeter=0;strokeColor=#667788;strokeWidth=2;align=center;verticalAlign=middle;fontFamily=Helvetica;fontSize=11;fontColor=default;labelBackgroundColor=default;endArrow=classic;endFill=1;dashed=1;" parent="DKlUDa0g7rmCu-vv5rfz-14" source="bMIZUlVMKYhtr8G9Qs2D-49" target="bMIZUlVMKYhtr8G9Qs2D-17" edge="1">
          <mxGeometry relative="1" as="geometry">
            <Array as="points">
              <mxPoint x="990" y="520" />
              <mxPoint x="990" y="490" />
              <mxPoint x="960" y="490" />
            </Array>
          </mxGeometry>
        </mxCell>
        <mxCell id="1" style="locked=1;" parent="0" />
        <mxCell id="-dR2T00Uhgw3VuPTZwKf-42" value="" style="html=1;rounded=0;strokeWidth=2;endArrow=none;endFill=0;dashed=1;labelBackgroundColor=none;shadow=1;movable=1;resizable=1;rotatable=1;deletable=1;editable=1;locked=0;connectable=1;fontColor=default;strokeColor=#667788;opacity=70;dashPattern=1 1;" parent="1" edge="1">
          <mxGeometry width="100" relative="1" as="geometry">
            <mxPoint x="200" y="10" as="sourcePoint" />
            <mxPoint x="200" y="680" as="targetPoint" />
          </mxGeometry>
        </mxCell>
        <mxCell id="-dR2T00Uhgw3VuPTZwKf-54" value="" style="html=1;rounded=0;strokeWidth=2;endArrow=none;endFill=0;dashed=1;exitX=0.633;exitY=0;exitDx=0;exitDy=0;exitPerimeter=0;labelBackgroundColor=none;shadow=1;movable=1;resizable=1;rotatable=1;deletable=1;editable=1;locked=0;connectable=1;fontColor=default;strokeColor=#667788;opacity=70;dashPattern=1 1;" parent="1" edge="1">
          <mxGeometry width="100" relative="1" as="geometry">
            <mxPoint x="1000" y="10" as="sourcePoint" />
            <mxPoint x="1000" y="680" as="targetPoint" />
          </mxGeometry>
        </mxCell>
        <mxCell id="-dR2T00Uhgw3VuPTZwKf-70" value="" style="html=1;rounded=0;strokeWidth=2;endArrow=none;endFill=0;dashed=1;labelBackgroundColor=none;shadow=1;movable=1;resizable=1;rotatable=1;deletable=1;editable=1;locked=0;connectable=1;fontColor=default;strokeColor=#667788;opacity=70;dashPattern=1 1;" parent="1" edge="1">
          <mxGeometry width="100" relative="1" as="geometry">
            <mxPoint x="10" y="40" as="sourcePoint" />
            <mxPoint x="1410" y="40" as="targetPoint" />
          </mxGeometry>
        </mxCell>
        <mxCell id="DKlUDa0g7rmCu-vv5rfz-8" value="" style="html=1;rounded=0;strokeWidth=2;endArrow=none;endFill=0;dashed=1;labelBackgroundColor=none;shadow=1;movable=1;resizable=1;rotatable=1;deletable=1;editable=1;locked=0;connectable=1;fontColor=default;strokeColor=#667788;opacity=70;dashPattern=1 1;" parent="1" edge="1">
          <mxGeometry width="100" relative="1" as="geometry">
            <mxPoint x="600" y="10" as="sourcePoint" />
            <mxPoint x="600" y="680" as="targetPoint" />
          </mxGeometry>
        </mxCell>
        <mxCell id="DKlUDa0g7rmCu-vv5rfz-415" value="Basic" style="text;align=center;verticalAlign=middle;resizable=0;points=[];autosize=0;strokeColor=none;fillColor=none;fontFamily=Helvetica;fontSize=18;fontColor=#667788;labelBackgroundColor=none;textShadow=1;" parent="1" vertex="1">
          <mxGeometry x="360" width="80" height="40" as="geometry" />
        </mxCell>
        <mxCell id="DKlUDa0g7rmCu-vv5rfz-416" value="Intermediate" style="text;align=center;verticalAlign=middle;resizable=0;points=[];autosize=0;strokeColor=none;fillColor=none;fontFamily=Helvetica;fontSize=18;fontColor=#667788;labelBackgroundColor=none;textShadow=1;" parent="1" vertex="1">
          <mxGeometry x="740" width="120" height="40" as="geometry" />
        </mxCell>
        <mxCell id="DKlUDa0g7rmCu-vv5rfz-417" value="Intro" style="text;html=1;align=center;verticalAlign=middle;resizable=0;points=[];autosize=0;strokeColor=none;fillColor=none;fontFamily=Helvetica;fontSize=18;fontColor=#667788;labelBackgroundColor=none;textShadow=1;" parent="1" vertex="1">
          <mxGeometry x="60" width="80" height="40" as="geometry" />
        </mxCell>
        <mxCell id="DKlUDa0g7rmCu-vv5rfz-418" value="Advanced" style="text;align=center;verticalAlign=middle;resizable=0;points=[];autosize=0;strokeColor=none;fillColor=none;fontFamily=Helvetica;fontSize=18;fontColor=#667788;labelBackgroundColor=none;textShadow=1;" parent="1" vertex="1">
          <mxGeometry x="1160" width="120" height="40" as="geometry" />
        </mxCell>
        <mxCell id="-dR2T00Uhgw3VuPTZwKf-47" value="Legend" style="rounded=1;fillColor=none;verticalAlign=top;labelBackgroundColor=none;movable=1;resizable=1;rotatable=1;deletable=1;editable=1;locked=0;connectable=1;container=0;fontStyle=1;fontColor=#667788;fontFamily=Georgia;strokeColor=#667788;shadow=1;glass=0;strokeWidth=1;textShadow=0;whiteSpace=wrap;" parent="1" vertex="1">
          <mxGeometry x="1210" y="120" width="200" height="480" as="geometry" />
        </mxCell>
        <mxCell id="-dR2T00Uhgw3VuPTZwKf-555" value="Metamagic" style="rounded=1;whiteSpace=wrap;fillColor=#D5D0CA;labelBackgroundColor=none;movable=1;resizable=1;rotatable=1;deletable=1;editable=1;locked=0;connectable=1;container=0;fontFamily=Georgia;fontSize=18;strokeColor=#667788;shadow=0;glass=0;strokeWidth=1;align=center;fontStyle=1;verticalAlign=middle;fontColor=#000000;textShadow=0;" parent="1" vertex="1">
          <mxGeometry x="1230" y="440" width="160" height="40" as="geometry" />
        </mxCell>
        <mxCell id="DKlUDa0g7rmCu-vv5rfz-169" value="Debilitation" style="rounded=1;whiteSpace=wrap;fillColor=#EBCD00;labelBackgroundColor=none;movable=1;resizable=1;rotatable=1;deletable=1;editable=1;locked=0;connectable=1;container=0;fontFamily=Georgia;fontSize=18;strokeColor=#667788;shadow=1;glass=0;strokeWidth=1;align=center;fontStyle=1;verticalAlign=middle;fontColor=#000000;textShadow=0;" parent="1" vertex="1">
          <mxGeometry x="1230" y="390" width="160" height="40" as="geometry" />
        </mxCell>
        <mxCell id="DKlUDa0g7rmCu-vv5rfz-170" value="Targeted Magic" style="rounded=1;whiteSpace=wrap;fillColor=#E80538;labelBackgroundColor=none;movable=1;resizable=1;rotatable=1;deletable=1;editable=1;locked=0;connectable=1;container=0;fontFamily=Georgia;fontSize=18;strokeColor=#667788;shadow=1;glass=0;strokeWidth=1;align=center;fontStyle=1;verticalAlign=middle;fontColor=#FFFFFF;textShadow=0;" parent="1" vertex="1">
          <mxGeometry x="1230" y="340" width="160" height="40" as="geometry" />
        </mxCell>
        <mxCell id="DKlUDa0g7rmCu-vv5rfz-171" value="Utility" style="rounded=1;whiteSpace=wrap;fillColor=#B3D56A;labelBackgroundColor=none;movable=1;resizable=1;rotatable=1;deletable=1;editable=1;locked=0;connectable=1;container=0;fontFamily=Georgia;fontSize=18;strokeColor=#667788;shadow=1;glass=0;strokeWidth=1;align=center;fontStyle=1;verticalAlign=middle;fontColor=#000000;textShadow=0;" parent="1" vertex="1">
          <mxGeometry x="1230" y="290" width="160" height="40" as="geometry" />
        </mxCell>
        <mxCell id="DKlUDa0g7rmCu-vv5rfz-172" value="Warding" style="rounded=1;whiteSpace=wrap;fillColor=#147A6D;labelBackgroundColor=none;movable=1;resizable=1;rotatable=1;deletable=1;editable=1;locked=0;connectable=1;container=0;fontFamily=Georgia;fontSize=18;strokeColor=#667788;shadow=1;glass=0;strokeWidth=1;align=center;fontStyle=1;verticalAlign=middle;fontColor=#FFFFFF;textShadow=0;" parent="1" vertex="1">
          <mxGeometry x="1230" y="240" width="160" height="40" as="geometry" />
        </mxCell>
        <mxCell id="DKlUDa0g7rmCu-vv5rfz-174" value="Augmentation" style="rounded=1;whiteSpace=wrap;fillColor=#AAC8EB;labelBackgroundColor=none;movable=1;resizable=1;rotatable=1;deletable=1;editable=1;locked=0;connectable=1;container=0;fontFamily=Georgia;fontSize=18;strokeColor=#667788;shadow=1;glass=0;strokeWidth=1;fontColor=#000000;align=center;fontStyle=1;verticalAlign=middle;textShadow=0;" parent="1" vertex="1">
          <mxGeometry x="1230" y="190" width="160" height="40" as="geometry" />
        </mxCell>
        <mxCell id="DKlUDa0g7rmCu-vv5rfz-178" value="Special requirements in italics" style="text;align=center;verticalAlign=middle;whiteSpace=wrap;rounded=1;fontFamily=Georgia;fontSize=15;fontColor=#667788;labelBackgroundColor=none;fontStyle=3;strokeColor=none;shadow=1;glass=0;strokeWidth=1;movable=1;resizable=1;rotatable=1;deletable=1;editable=1;locked=0;connectable=1;" parent="1" vertex="1">
          <mxGeometry x="1230" y="150" width="160" height="40" as="geometry" />
        </mxCell>
        <mxCell id="DKlUDa0g7rmCu-vv5rfz-186" value="Signature spells in bold" style="text;align=center;verticalAlign=middle;whiteSpace=wrap;rounded=1;fontFamily=Georgia;fontSize=15;fontColor=#667788;labelBackgroundColor=none;fontStyle=1;strokeColor=none;shadow=1;glass=0;strokeWidth=1;movable=1;resizable=1;rotatable=1;deletable=1;editable=1;locked=0;connectable=1;" parent="1" vertex="1">
          <mxGeometry x="1230" y="490" width="160" height="40" as="geometry" />
        </mxCell>
        <mxCell id="DKlUDa0g7rmCu-vv5rfz-187" value="●○○○&#xa;Spell slot cost" style="text;align=center;verticalAlign=middle;whiteSpace=wrap;rounded=1;fontFamily=Georgia;fontSize=15;fontColor=#667788;labelBackgroundColor=none;strokeColor=none;shadow=1;glass=0;strokeWidth=1;movable=1;resizable=1;rotatable=1;deletable=1;editable=1;locked=0;connectable=1;fontStyle=1" parent="1" vertex="1">
          <mxGeometry x="1230" y="530" width="160" height="40" as="geometry" />
        </mxCell>
        <mxCell id="DKlUDa0g7rmCu-vv5rfz-188" value="Spell cost bubbles text" style="" parent="0" />
        <mxCell id="CoPnodNDMeY2YXLun1O6-93" value="●○○" style="text;align=center;verticalAlign=middle;rounded=0;fontFamily=Helvetica;fontSize=13;fontColor=default;labelBackgroundColor=none;spacing=0;spacingTop=0;spacingBottom=-5;fillColor=none;" parent="DKlUDa0g7rmCu-vv5rfz-188" vertex="1">
          <mxGeometry x="140" y="580" width="40" height="20" as="geometry" />
        </mxCell>
        <mxCell id="bMIZUlVMKYhtr8G9Qs2D-67" value="●○○" style="text;align=center;verticalAlign=middle;rounded=0;fontFamily=Helvetica;fontSize=13;fontColor=#FFFFFF;labelBackgroundColor=none;spacing=0;spacingTop=0;spacingBottom=-5;fillColor=none;" parent="DKlUDa0g7rmCu-vv5rfz-188" vertex="1">
          <mxGeometry x="140" y="110" width="40" height="20" as="geometry" />
        </mxCell>
        <mxCell id="bMIZUlVMKYhtr8G9Qs2D-68" value="●○○" style="text;align=center;verticalAlign=middle;rounded=0;fontFamily=Helvetica;fontSize=13;fontColor=default;labelBackgroundColor=none;spacing=0;spacingTop=0;spacingBottom=-5;fillColor=none;" parent="DKlUDa0g7rmCu-vv5rfz-188" vertex="1">
          <mxGeometry x="1140" y="80" width="40" height="20" as="geometry" />
        </mxCell>
        <mxCell id="bMIZUlVMKYhtr8G9Qs2D-69" value="●○○" style="text;align=center;verticalAlign=middle;rounded=0;fontFamily=Helvetica;fontSize=13;fontColor=default;labelBackgroundColor=none;spacing=0;spacingTop=0;spacingBottom=-5;fillColor=none;" parent="DKlUDa0g7rmCu-vv5rfz-188" vertex="1">
          <mxGeometry x="740" y="300" width="40" height="20" as="geometry" />
        </mxCell>
        <mxCell id="bMIZUlVMKYhtr8G9Qs2D-70" value="●○○" style="text;align=center;verticalAlign=middle;rounded=0;fontFamily=Helvetica;fontSize=13;fontColor=#FFFFFF;labelBackgroundColor=none;spacing=0;spacingTop=0;spacingBottom=-5;fillColor=none;" parent="DKlUDa0g7rmCu-vv5rfz-188" vertex="1">
          <mxGeometry x="340" y="240" width="40" height="20" as="geometry" />
        </mxCell>
        <mxCell id="bMIZUlVMKYhtr8G9Qs2D-71" value="●○○" style="text;align=center;verticalAlign=middle;rounded=0;fontFamily=Helvetica;fontSize=13;fontColor=default;labelBackgroundColor=none;spacing=0;spacingTop=0;spacingBottom=-5;fillColor=none;" parent="DKlUDa0g7rmCu-vv5rfz-188" vertex="1">
          <mxGeometry x="340" y="420" width="40" height="20" as="geometry" />
        </mxCell>
        <mxCell id="bMIZUlVMKYhtr8G9Qs2D-72" value="●○○" style="text;align=center;verticalAlign=middle;rounded=0;fontFamily=Helvetica;fontSize=13;fontColor=#FFFFFF;labelBackgroundColor=none;spacing=0;spacingTop=0;spacingBottom=-5;fillColor=none;" parent="DKlUDa0g7rmCu-vv5rfz-188" vertex="1">
          <mxGeometry x="740" y="240" width="40" height="20" as="geometry" />
        </mxCell>
        <mxCell id="bMIZUlVMKYhtr8G9Qs2D-73" value="●○○" style="text;align=center;verticalAlign=middle;rounded=0;fontFamily=Helvetica;fontSize=13;fontColor=#FFFFFF;labelBackgroundColor=none;spacing=0;spacingTop=0;spacingBottom=-5;fillColor=none;" parent="DKlUDa0g7rmCu-vv5rfz-188" vertex="1">
          <mxGeometry x="1140" y="520" width="40" height="20" as="geometry" />
        </mxCell>
        <mxCell id="bMIZUlVMKYhtr8G9Qs2D-74" value="●○○" style="text;align=center;verticalAlign=middle;rounded=0;fontFamily=Helvetica;fontSize=13;fontColor=default;labelBackgroundColor=none;spacing=0;spacingTop=0;spacingBottom=-5;fillColor=none;" parent="DKlUDa0g7rmCu-vv5rfz-188" vertex="1">
          <mxGeometry x="340" y="640" width="40" height="20" as="geometry" />
        </mxCell>
        <mxCell id="bMIZUlVMKYhtr8G9Qs2D-75" value="●○○" style="text;align=center;verticalAlign=middle;rounded=0;fontFamily=Helvetica;fontSize=13;fontColor=#FFFFFF;labelBackgroundColor=none;spacing=0;spacingTop=0;spacingBottom=-5;fillColor=none;" parent="DKlUDa0g7rmCu-vv5rfz-188" vertex="1">
          <mxGeometry x="340" y="580" width="40" height="20" as="geometry" />
        </mxCell>
        <mxCell id="bMIZUlVMKYhtr8G9Qs2D-76" value="●○○" style="text;align=center;verticalAlign=middle;rounded=0;fontFamily=Helvetica;fontSize=13;fontColor=default;labelBackgroundColor=none;spacing=0;spacingTop=0;spacingBottom=-5;fillColor=none;" parent="DKlUDa0g7rmCu-vv5rfz-188" vertex="1">
          <mxGeometry x="740" y="640" width="40" height="20" as="geometry" />
        </mxCell>
        <mxCell id="bMIZUlVMKYhtr8G9Qs2D-77" value="●●○" style="text;align=center;verticalAlign=middle;rounded=0;fontFamily=Helvetica;fontSize=13;fontColor=default;labelBackgroundColor=none;spacing=0;spacingTop=0;spacingBottom=-5;fillColor=none;" parent="DKlUDa0g7rmCu-vv5rfz-188" vertex="1">
          <mxGeometry x="340" y="80" width="40" height="20" as="geometry" />
        </mxCell>
        <mxCell id="bMIZUlVMKYhtr8G9Qs2D-78" value="●●○" style="text;align=center;verticalAlign=middle;rounded=0;fontFamily=Helvetica;fontSize=13;fontColor=#FFFFFF;labelBackgroundColor=none;spacing=0;spacingTop=0;spacingBottom=-5;fillColor=none;" parent="DKlUDa0g7rmCu-vv5rfz-188" vertex="1">
          <mxGeometry x="540" y="110" width="40" height="20" as="geometry" />
        </mxCell>
        <mxCell id="bMIZUlVMKYhtr8G9Qs2D-79" value="●●○" style="text;align=center;verticalAlign=middle;rounded=0;fontFamily=Helvetica;fontSize=13;fontColor=default;labelBackgroundColor=none;spacing=0;spacingTop=0;spacingBottom=-5;fillColor=none;" parent="DKlUDa0g7rmCu-vv5rfz-188" vertex="1">
          <mxGeometry x="1140" y="140" width="40" height="20" as="geometry" />
        </mxCell>
        <mxCell id="bMIZUlVMKYhtr8G9Qs2D-80" value="●●○" style="text;align=center;verticalAlign=middle;rounded=0;fontFamily=Helvetica;fontSize=13;fontColor=default;labelBackgroundColor=none;spacing=0;spacingTop=0;spacingBottom=-5;fillColor=none;" parent="DKlUDa0g7rmCu-vv5rfz-188" vertex="1">
          <mxGeometry x="1140" y="360" width="40" height="20" as="geometry" />
        </mxCell>
        <mxCell id="bMIZUlVMKYhtr8G9Qs2D-81" value="●●○" style="text;align=center;verticalAlign=middle;rounded=0;fontFamily=Helvetica;fontSize=13;fontColor=default;labelBackgroundColor=none;spacing=0;spacingTop=0;spacingBottom=-5;fillColor=none;" parent="DKlUDa0g7rmCu-vv5rfz-188" vertex="1">
          <mxGeometry x="740" y="360" width="40" height="20" as="geometry" />
        </mxCell>
        <mxCell id="bMIZUlVMKYhtr8G9Qs2D-82" value="●●○" style="text;align=center;verticalAlign=middle;rounded=0;fontFamily=Helvetica;fontSize=13;fontColor=default;labelBackgroundColor=none;spacing=0;spacingTop=0;spacingBottom=-5;fillColor=none;" parent="DKlUDa0g7rmCu-vv5rfz-188" vertex="1">
          <mxGeometry x="740" y="420" width="40" height="20" as="geometry" />
        </mxCell>
        <mxCell id="bMIZUlVMKYhtr8G9Qs2D-83" value="●●○" style="text;align=center;verticalAlign=middle;rounded=0;fontFamily=Helvetica;fontSize=13;fontColor=default;labelBackgroundColor=none;spacing=0;spacingTop=0;spacingBottom=-5;fillColor=none;" parent="DKlUDa0g7rmCu-vv5rfz-188" vertex="1">
          <mxGeometry x="340" y="360" width="40" height="20" as="geometry" />
        </mxCell>
        <mxCell id="bMIZUlVMKYhtr8G9Qs2D-84" value="●●○" style="text;align=center;verticalAlign=middle;rounded=0;fontFamily=Helvetica;fontSize=13;fontColor=default;labelBackgroundColor=none;spacing=0;spacingTop=0;spacingBottom=-5;fillColor=none;" parent="DKlUDa0g7rmCu-vv5rfz-188" vertex="1">
          <mxGeometry x="340" y="300" width="40" height="20" as="geometry" />
        </mxCell>
        <mxCell id="bMIZUlVMKYhtr8G9Qs2D-85" value="●●○" style="text;align=center;verticalAlign=middle;rounded=0;fontFamily=Helvetica;fontSize=13;fontColor=default;labelBackgroundColor=none;spacing=0;spacingTop=0;spacingBottom=-5;fillColor=none;" parent="DKlUDa0g7rmCu-vv5rfz-188" vertex="1">
          <mxGeometry x="340" y="520" width="40" height="20" as="geometry" />
        </mxCell>
        <mxCell id="bMIZUlVMKYhtr8G9Qs2D-86" value="●●○" style="text;align=center;verticalAlign=middle;rounded=0;fontFamily=Helvetica;fontSize=13;fontColor=default;labelBackgroundColor=none;spacing=0;spacingTop=0;spacingBottom=-5;fillColor=none;" parent="DKlUDa0g7rmCu-vv5rfz-188" vertex="1">
          <mxGeometry x="540" y="550" width="40" height="20" as="geometry" />
        </mxCell>
        <mxCell id="bMIZUlVMKYhtr8G9Qs2D-87" value="●●○" style="text;align=center;verticalAlign=middle;rounded=0;fontFamily=Helvetica;fontSize=13;fontColor=default;labelBackgroundColor=none;spacing=0;spacingTop=0;spacingBottom=-5;fillColor=none;" parent="DKlUDa0g7rmCu-vv5rfz-188" vertex="1">
          <mxGeometry x="740" y="520" width="40" height="20" as="geometry" />
        </mxCell>
        <mxCell id="bMIZUlVMKYhtr8G9Qs2D-88" value="●●○" style="text;align=center;verticalAlign=middle;rounded=0;fontFamily=Helvetica;fontSize=13;fontColor=default;labelBackgroundColor=none;spacing=0;spacingTop=0;spacingBottom=-5;fillColor=none;" parent="DKlUDa0g7rmCu-vv5rfz-188" vertex="1">
          <mxGeometry x="940" y="520" width="40" height="20" as="geometry" />
        </mxCell>
        <mxCell id="bMIZUlVMKYhtr8G9Qs2D-89" value="●●○" style="text;align=center;verticalAlign=middle;rounded=0;fontFamily=Helvetica;fontSize=13;fontColor=#FFFFFF;labelBackgroundColor=none;spacing=0;spacingTop=0;spacingBottom=-5;fillColor=none;" parent="DKlUDa0g7rmCu-vv5rfz-188" vertex="1">
          <mxGeometry x="940" y="580" width="40" height="20" as="geometry" />
        </mxCell>
        <mxCell id="bMIZUlVMKYhtr8G9Qs2D-90" value="●●○" style="text;align=center;verticalAlign=middle;rounded=0;fontFamily=Helvetica;fontSize=13;fontColor=#FFFFFF;labelBackgroundColor=none;spacing=0;spacingTop=0;spacingBottom=-5;fillColor=none;" parent="DKlUDa0g7rmCu-vv5rfz-188" vertex="1">
          <mxGeometry x="1140" y="610" width="40" height="20" as="geometry" />
        </mxCell>
        <mxCell id="bMIZUlVMKYhtr8G9Qs2D-91" value="●●○" style="text;align=center;verticalAlign=middle;rounded=0;fontFamily=Helvetica;fontSize=13;fontColor=default;labelBackgroundColor=none;spacing=0;spacingTop=0;spacingBottom=-5;fillColor=none;" parent="DKlUDa0g7rmCu-vv5rfz-188" vertex="1">
          <mxGeometry x="140" y="330" width="40" height="20" as="geometry" />
        </mxCell>
        <mxCell id="bMIZUlVMKYhtr8G9Qs2D-92" value="●●○" style="text;align=center;verticalAlign=middle;rounded=0;fontFamily=Helvetica;fontSize=13;fontColor=default;labelBackgroundColor=none;spacing=0;spacingTop=0;spacingBottom=-5;fillColor=none;" parent="DKlUDa0g7rmCu-vv5rfz-188" vertex="1">
          <mxGeometry x="940" y="420" width="40" height="20" as="geometry" />
        </mxCell>
        <mxCell id="bMIZUlVMKYhtr8G9Qs2D-93" value="●●●" style="text;align=center;verticalAlign=middle;rounded=0;fontFamily=Helvetica;fontSize=13;fontColor=default;labelBackgroundColor=none;spacing=0;spacingTop=0;spacingBottom=-5;fillColor=none;" parent="DKlUDa0g7rmCu-vv5rfz-188" vertex="1">
          <mxGeometry x="940" y="300" width="40" height="20" as="geometry" />
        </mxCell>
        <mxCell id="DKlUDa0g7rmCu-vv5rfz-245" value="Circle Pre-requisites text" style="locked=1;" parent="0" />
        <mxCell id="CoPnodNDMeY2YXLun1O6-123" value="Circle 30" style="text;align=right;verticalAlign=bottom;resizable=0;points=[];autosize=1;strokeColor=none;fillColor=none;fontFamily=Georgia;fontSize=13;fontColor=#667788;labelBackgroundColor=none;fontStyle=3" parent="DKlUDa0g7rmCu-vv5rfz-245" vertex="1">
          <mxGeometry x="1110" y="90" width="70" height="30" as="geometry" />
        </mxCell>
        <mxCell id="bMIZUlVMKYhtr8G9Qs2D-94" value="Circle 50" style="text;align=right;verticalAlign=bottom;resizable=0;points=[];autosize=1;strokeColor=none;fillColor=none;fontFamily=Georgia;fontSize=13;fontColor=#667788;labelBackgroundColor=none;fontStyle=3" parent="DKlUDa0g7rmCu-vv5rfz-245" vertex="1">
          <mxGeometry x="1110" y="30" width="70" height="30" as="geometry" />
        </mxCell>
        <mxCell id="bMIZUlVMKYhtr8G9Qs2D-95" value="Circle 50" style="text;align=right;verticalAlign=bottom;resizable=0;points=[];autosize=1;strokeColor=none;fillColor=none;fontFamily=Georgia;fontSize=13;fontColor=#667788;labelBackgroundColor=none;fontStyle=3" parent="DKlUDa0g7rmCu-vv5rfz-245" vertex="1">
          <mxGeometry x="1110" y="310" width="70" height="30" as="geometry" />
        </mxCell>
        <mxCell id="bMIZUlVMKYhtr8G9Qs2D-96" value="Circle 20" style="text;align=right;verticalAlign=bottom;resizable=0;points=[];autosize=1;strokeColor=none;fillColor=none;fontFamily=Georgia;fontSize=13;fontColor=#667788;labelBackgroundColor=none;fontStyle=3" parent="DKlUDa0g7rmCu-vv5rfz-245" vertex="1">
          <mxGeometry x="710" y="470" width="70" height="30" as="geometry" />
        </mxCell>
        <mxCell id="bMIZUlVMKYhtr8G9Qs2D-97" value="Circle 10" style="text;align=right;verticalAlign=bottom;resizable=0;points=[];autosize=1;strokeColor=none;fillColor=none;fontFamily=Georgia;fontSize=13;fontColor=#667788;labelBackgroundColor=none;fontStyle=3" parent="DKlUDa0g7rmCu-vv5rfz-245" vertex="1">
          <mxGeometry x="510" y="500" width="70" height="30" as="geometry" />
        </mxCell>
        <mxCell id="bMIZUlVMKYhtr8G9Qs2D-99" value="Circle 30" style="text;align=right;verticalAlign=bottom;resizable=0;points=[];autosize=1;strokeColor=none;fillColor=none;fontFamily=Georgia;fontSize=13;fontColor=#667788;labelBackgroundColor=none;fontStyle=3" parent="DKlUDa0g7rmCu-vv5rfz-245" vertex="1">
          <mxGeometry x="1110" y="560" width="70" height="30" as="geometry" />
        </mxCell>
        <mxCell id="bMIZUlVMKYhtr8G9Qs2D-98" value="Circle 40" style="text;align=right;verticalAlign=bottom;resizable=0;points=[];autosize=1;strokeColor=none;fillColor=none;fontFamily=Georgia;fontSize=13;fontColor=#667788;labelBackgroundColor=none;fontStyle=3" parent="DKlUDa0g7rmCu-vv5rfz-245" vertex="1">
          <mxGeometry x="1110" y="470" width="70" height="30" as="geometry" />
        </mxCell>
        <mxCell id="DKlUDa0g7rmCu-vv5rfz-268" value="Spell Pre-requisites text" style="locked=1;" parent="0" />
        <mxCell id="CoPnodNDMeY2YXLun1O6-134" value="Requires DIG or HOJ" style="text;align=left;verticalAlign=top;resizable=0;points=[];autosize=1;strokeColor=none;fillColor=none;fontFamily=Georgia;fontSize=13;fontColor=#667788;labelBackgroundColor=none;spacing=0;spacingBottom=0;spacingTop=-4;fontStyle=3" parent="DKlUDa0g7rmCu-vv5rfz-268" vertex="1">
          <mxGeometry x="620" y="660" width="130" height="20" as="geometry" />
        </mxCell>
        <mxCell id="bMIZUlVMKYhtr8G9Qs2D-101" value="Requires RW or Courage" style="text;align=left;verticalAlign=top;resizable=0;points=[];autosize=1;strokeColor=none;fillColor=none;fontFamily=Georgia;fontSize=13;fontColor=#667788;labelBackgroundColor=none;spacing=0;spacingBottom=0;spacingTop=-4;fontStyle=3" parent="DKlUDa0g7rmCu-vv5rfz-268" vertex="1">
          <mxGeometry x="620" y="380" width="150" height="20" as="geometry" />
        </mxCell>
        <mxCell id="bMIZUlVMKYhtr8G9Qs2D-103" value="Requires RUE or DA" style="text;align=left;verticalAlign=top;resizable=0;points=[];autosize=1;strokeColor=none;fillColor=none;fontFamily=Georgia;fontSize=13;fontColor=#667788;labelBackgroundColor=none;spacing=0;spacingBottom=0;spacingTop=-4;fontStyle=3" parent="DKlUDa0g7rmCu-vv5rfz-268" vertex="1">
          <mxGeometry x="820" y="440" width="130" height="20" as="geometry" />
        </mxCell>
        <mxCell id="-dR2T00Uhgw3VuPTZwKf-566" value="Transparency" style="locked=1;" parent="0" />
        <mxCell id="bMIZUlVMKYhtr8G9Qs2D-104" value="Spell Names text" style="locked=1;" parent="0" visible="0" />
        <mxCell id="bMIZUlVMKYhtr8G9Qs2D-109" value="Aspirant&#39;s Aegis" style="rounded=1;strokeWidth=2;strokeColor=#667788;textShadow=0;labelBackgroundColor=none;whiteSpace=wrap;fontSize=15;fontFamily=Georgia;fillColor=#147A6D;fontColor=#FFFFFF;" parent="bMIZUlVMKYhtr8G9Qs2D-104" vertex="1">
          <mxGeometry x="20" y="90" width="160" height="40" as="geometry" />
        </mxCell>
        <mxCell id="bMIZUlVMKYhtr8G9Qs2D-111" value="Vessel of Salvation" style="rounded=1;strokeWidth=2;strokeColor=#667788;textShadow=0;labelBackgroundColor=none;whiteSpace=wrap;fontSize=15;fontFamily=Georgia;fillColor=#B3D56A;fontStyle=1" parent="bMIZUlVMKYhtr8G9Qs2D-104" vertex="1">
          <mxGeometry x="220" y="60" width="160" height="40" as="geometry" />
        </mxCell>
        <mxCell id="bMIZUlVMKYhtr8G9Qs2D-112" value="Tamsine&#39;s Kiss" style="rounded=1;strokeWidth=2;strokeColor=#667788;textShadow=0;labelBackgroundColor=none;whiteSpace=wrap;fontSize=15;fontFamily=Georgia;fillColor=#147A6D;fontStyle=1;fontColor=#FFFFFF;" parent="bMIZUlVMKYhtr8G9Qs2D-104" vertex="1">
          <mxGeometry x="420" y="90" width="160" height="40" as="geometry" />
        </mxCell>
        <mxCell id="bMIZUlVMKYhtr8G9Qs2D-113" value="Alamhif&#39;s Gift" style="rounded=1;strokeWidth=2;strokeColor=#667788;textShadow=0;labelBackgroundColor=none;whiteSpace=wrap;fontSize=15;fontFamily=Georgia;fillColor=#B3D56A;fontStyle=1" parent="bMIZUlVMKYhtr8G9Qs2D-104" vertex="1">
          <mxGeometry x="1020" y="60" width="160" height="40" as="geometry" />
        </mxCell>
        <mxCell id="bMIZUlVMKYhtr8G9Qs2D-114" value="Crusader&#39;s Challenge" style="rounded=1;strokeWidth=2;strokeColor=#667788;textShadow=0;labelBackgroundColor=none;whiteSpace=wrap;fontSize=15;fontFamily=Georgia;fillColor=#AAC8EB;fontStyle=1;gradientColor=#B3D56A;gradientDirection=east;" parent="bMIZUlVMKYhtr8G9Qs2D-104" vertex="1">
          <mxGeometry x="1020" y="120" width="160" height="40" as="geometry" />
        </mxCell>
        <mxCell id="bMIZUlVMKYhtr8G9Qs2D-119" value="Heroic Strength" style="rounded=1;strokeWidth=2;strokeColor=#667788;textShadow=0;labelBackgroundColor=none;whiteSpace=wrap;fontSize=15;fontFamily=Georgia;fillColor=#AAC8EB;" parent="bMIZUlVMKYhtr8G9Qs2D-104" vertex="1">
          <mxGeometry x="20" y="310" width="160" height="40" as="geometry" />
        </mxCell>
        <mxCell id="bMIZUlVMKYhtr8G9Qs2D-123" value="Courage" style="rounded=1;strokeWidth=2;strokeColor=#667788;textShadow=0;labelBackgroundColor=none;whiteSpace=wrap;fontSize=15;fontFamily=Georgia;fillColor=#147A6D;fontColor=#FFFFFF;" parent="bMIZUlVMKYhtr8G9Qs2D-104" vertex="1">
          <mxGeometry x="220" y="220" width="160" height="40" as="geometry" />
        </mxCell>
        <mxCell id="bMIZUlVMKYhtr8G9Qs2D-126" value="Divine Guidance" style="rounded=1;strokeWidth=2;strokeColor=#667788;textShadow=0;labelBackgroundColor=none;whiteSpace=wrap;fontSize=15;fontFamily=Georgia;fillColor=#AAC8EB;" parent="bMIZUlVMKYhtr8G9Qs2D-104" vertex="1">
          <mxGeometry x="220" y="400" width="160" height="40" as="geometry" />
        </mxCell>
        <mxCell id="bMIZUlVMKYhtr8G9Qs2D-128" value="Righteous Wrath" style="rounded=1;strokeWidth=2;strokeColor=#667788;textShadow=0;labelBackgroundColor=none;whiteSpace=wrap;fontSize=15;fontFamily=Georgia;fillColor=#AAC8EB;" parent="bMIZUlVMKYhtr8G9Qs2D-104" vertex="1">
          <mxGeometry x="220" y="340" width="160" height="40" as="geometry" />
        </mxCell>
        <mxCell id="bMIZUlVMKYhtr8G9Qs2D-131" value="Sentinel&#39;s Resolve" style="rounded=1;strokeWidth=2;strokeColor=#667788;textShadow=0;labelBackgroundColor=none;whiteSpace=wrap;fontSize=15;fontFamily=Georgia;fillColor=#AAC8EB;" parent="bMIZUlVMKYhtr8G9Qs2D-104" vertex="1">
          <mxGeometry x="220" y="280" width="160" height="40" as="geometry" />
        </mxCell>
        <mxCell id="bMIZUlVMKYhtr8G9Qs2D-133" value="Anti-Stun" style="rounded=1;strokeWidth=2;strokeColor=#667788;textShadow=0;labelBackgroundColor=none;whiteSpace=wrap;fontSize=15;fontFamily=Georgia;fillColor=#B3D56A;" parent="bMIZUlVMKYhtr8G9Qs2D-104" vertex="1">
          <mxGeometry x="620" y="340" width="160" height="40" as="geometry" />
        </mxCell>
        <mxCell id="bMIZUlVMKYhtr8G9Qs2D-136" value="Divine Armor" style="rounded=1;strokeWidth=2;strokeColor=#667788;textShadow=0;labelBackgroundColor=none;whiteSpace=wrap;fontSize=15;fontFamily=Georgia;fillColor=#B3D56A;fontStyle=1" parent="bMIZUlVMKYhtr8G9Qs2D-104" vertex="1">
          <mxGeometry x="820" y="280" width="160" height="40" as="geometry" />
        </mxCell>
        <mxCell id="bMIZUlVMKYhtr8G9Qs2D-137" value="Bond Armaments" style="rounded=1;strokeWidth=2;strokeColor=#667788;textShadow=0;labelBackgroundColor=none;whiteSpace=wrap;fontSize=15;fontFamily=Georgia;fillColor=#B3D56A;fontStyle=1" parent="bMIZUlVMKYhtr8G9Qs2D-104" vertex="1">
          <mxGeometry x="820" y="400" width="160" height="40" as="geometry" />
        </mxCell>
        <mxCell id="bMIZUlVMKYhtr8G9Qs2D-139" value="Marshal Order" style="rounded=1;strokeWidth=2;strokeColor=#667788;textShadow=0;labelBackgroundColor=none;whiteSpace=wrap;fontSize=15;fontFamily=Georgia;fillColor=#AAC8EB;fontStyle=1" parent="bMIZUlVMKYhtr8G9Qs2D-104" vertex="1">
          <mxGeometry x="620" y="400" width="160" height="40" as="geometry" />
        </mxCell>
        <mxCell id="bMIZUlVMKYhtr8G9Qs2D-140" value="Truffenyi&#39;s Rally" style="rounded=1;strokeWidth=2;strokeColor=#667788;textShadow=0;labelBackgroundColor=none;whiteSpace=wrap;fontSize=15;fontFamily=Georgia;fillColor=#AAC8EB;fontStyle=1;gradientColor=#B3D56A;gradientDirection=east;" parent="bMIZUlVMKYhtr8G9Qs2D-104" vertex="1">
          <mxGeometry x="1020" y="340" width="160" height="40" as="geometry" />
        </mxCell>
        <mxCell id="bMIZUlVMKYhtr8G9Qs2D-142" value="Veteran Insight" style="rounded=1;strokeWidth=2;strokeColor=#667788;textShadow=0;labelBackgroundColor=none;whiteSpace=wrap;fontSize=15;fontFamily=Georgia;fillColor=#D5D0CA;fontStyle=1" parent="bMIZUlVMKYhtr8G9Qs2D-104" vertex="1">
          <mxGeometry x="620" y="280" width="160" height="40" as="geometry" />
        </mxCell>
        <mxCell id="bMIZUlVMKYhtr8G9Qs2D-143" value="Soldier&#39;s Prayer" style="rounded=1;strokeWidth=2;strokeColor=#667788;textShadow=0;labelBackgroundColor=none;whiteSpace=wrap;fontSize=15;fontFamily=Georgia;fillColor=#147A6D;fontStyle=0;fontColor=#FFFFFF;" parent="bMIZUlVMKYhtr8G9Qs2D-104" vertex="1">
          <mxGeometry x="620" y="220" width="160" height="40" as="geometry" />
        </mxCell>
        <mxCell id="bMIZUlVMKYhtr8G9Qs2D-148" value="Stun Foe" style="rounded=1;strokeWidth=2;strokeColor=#667788;textShadow=0;labelBackgroundColor=none;whiteSpace=wrap;fontSize=15;fontFamily=Georgia;fillColor=#EBCD00;" parent="bMIZUlVMKYhtr8G9Qs2D-104" vertex="1">
          <mxGeometry x="20" y="560" width="160" height="40" as="geometry" />
        </mxCell>
        <mxCell id="bMIZUlVMKYhtr8G9Qs2D-151" value="Halt" style="rounded=1;strokeWidth=2;strokeColor=#667788;textShadow=0;labelBackgroundColor=none;whiteSpace=wrap;fontSize=15;fontFamily=Georgia;fillColor=#EBCD00;" parent="bMIZUlVMKYhtr8G9Qs2D-104" vertex="1">
          <mxGeometry x="220" y="500" width="160" height="40" as="geometry" />
        </mxCell>
        <mxCell id="bMIZUlVMKYhtr8G9Qs2D-154" value="Footman&#39;s Strike" style="rounded=1;strokeWidth=2;strokeColor=#667788;textShadow=0;labelBackgroundColor=none;whiteSpace=wrap;fontSize=15;fontFamily=Georgia;fillColor=#E80538;fontColor=#FFFFFF;" parent="bMIZUlVMKYhtr8G9Qs2D-104" vertex="1">
          <mxGeometry x="220" y="560" width="160" height="40" as="geometry" />
        </mxCell>
        <mxCell id="bMIZUlVMKYhtr8G9Qs2D-155" value="Shatter" style="rounded=1;strokeWidth=2;strokeColor=#667788;textShadow=0;labelBackgroundColor=none;whiteSpace=wrap;fontSize=15;fontFamily=Georgia;fillColor=#EBCD00;" parent="bMIZUlVMKYhtr8G9Qs2D-104" vertex="1">
          <mxGeometry x="420" y="530" width="160" height="40" as="geometry" />
        </mxCell>
        <mxCell id="bMIZUlVMKYhtr8G9Qs2D-157" value="Hands of Justice" style="rounded=1;strokeWidth=2;strokeColor=#667788;textShadow=0;labelBackgroundColor=none;whiteSpace=wrap;fontSize=15;fontFamily=Georgia;fillColor=#B3D56A;" parent="bMIZUlVMKYhtr8G9Qs2D-104" vertex="1">
          <mxGeometry x="220" y="620" width="160" height="40" as="geometry" />
        </mxCell>
        <mxCell id="bMIZUlVMKYhtr8G9Qs2D-158" value="Clarity" style="rounded=1;strokeWidth=2;strokeColor=#667788;textShadow=0;labelBackgroundColor=none;whiteSpace=wrap;fontSize=15;fontFamily=Georgia;fillColor=#AAC8EB;" parent="bMIZUlVMKYhtr8G9Qs2D-104" vertex="1">
          <mxGeometry x="620" y="620" width="160" height="40" as="geometry" />
        </mxCell>
        <mxCell id="bMIZUlVMKYhtr8G9Qs2D-159" value="Banner of Truce" style="rounded=1;strokeWidth=2;strokeColor=#667788;textShadow=0;labelBackgroundColor=none;whiteSpace=wrap;fontSize=15;fontFamily=Georgia;fillColor=#B3D56A;fontStyle=1" parent="bMIZUlVMKYhtr8G9Qs2D-104" vertex="1">
          <mxGeometry x="620" y="500" width="160" height="40" as="geometry" />
        </mxCell>
        <mxCell id="bMIZUlVMKYhtr8G9Qs2D-160" value="Rutilor&#39;s Edge" style="rounded=1;strokeWidth=2;strokeColor=#667788;textShadow=0;labelBackgroundColor=none;whiteSpace=wrap;fontSize=15;fontFamily=Georgia;fillColor=#B3D56A;" parent="bMIZUlVMKYhtr8G9Qs2D-104" vertex="1">
          <mxGeometry x="820" y="560" width="160" height="40" as="geometry" />
        </mxCell>
        <mxCell id="bMIZUlVMKYhtr8G9Qs2D-162" value="Rebuke" style="rounded=1;strokeWidth=2;strokeColor=#667788;textShadow=0;labelBackgroundColor=none;whiteSpace=wrap;fontSize=15;fontFamily=Georgia;fillColor=#E80538;fontColor=#FFFFFF;" parent="bMIZUlVMKYhtr8G9Qs2D-104" vertex="1">
          <mxGeometry x="820" y="500" width="160" height="40" as="geometry" />
        </mxCell>
        <mxCell id="bMIZUlVMKYhtr8G9Qs2D-163" value="Holy Warrior" style="rounded=1;strokeWidth=2;strokeColor=#667788;textShadow=0;labelBackgroundColor=none;whiteSpace=wrap;fontSize=15;fontFamily=Georgia;fillColor=#147A6D;fontStyle=1;fontColor=#FFFFFF;gradientColor=#B3D56A;gradientDirection=east;" parent="bMIZUlVMKYhtr8G9Qs2D-104" vertex="1">
          <mxGeometry x="1020" y="590" width="160" height="40" as="geometry" />
        </mxCell>
        <mxCell id="bMIZUlVMKYhtr8G9Qs2D-164" value="Smite Horde" style="rounded=1;strokeWidth=2;strokeColor=#667788;textShadow=0;labelBackgroundColor=none;whiteSpace=wrap;fontSize=15;fontFamily=Georgia;fillColor=#E80538;fontColor=#FFFFFF;" parent="bMIZUlVMKYhtr8G9Qs2D-104" vertex="1">
          <mxGeometry x="1020" y="500" width="160" height="40" as="geometry" />
        </mxCell>
      </root>
    </mxGraphModel>
  </diagram>
</mxfile>
